<svg xmlns="http://www.w3.org/2000/svg" version="1.1" xmlns:xlink="http://www.w3.org/1999/xlink" width="40" height="40"><svg width="40" height="40" viewBox="0 0 40 40" fill="none" xmlns="http://www.w3.org/2000/svg">
<path d="M19.9977 0C31.0434 0 39.9977 8.9543 39.9977 20C39.9977 31.0457 31.0434 40 19.9977 40C16.6086 40 13.4165 39.1568 10.6194 37.669C10.2206 37.4568 9.75726 37.3924 9.32088 37.5093L1.78665 39.5283C0.995619 39.7402 0.271764 39.0164 0.483715 38.2254L2.50029 30.6992C2.6174 30.2621 2.55257 29.798 2.33961 29.3988C0.84505 26.5968 -0.00231934 23.3974 -0.00231934 20C-0.00231934 8.9543 8.95199 0 19.9977 0Z" fill="#F97316"></path>
<path d="M14.2366 29.3837C12.3152 27.1113 8.90678 22.832 7.69353 19.7306C7.62592 19.5578 7.60329 19.3739 7.61807 19.1889C7.68745 18.3202 8.57538 17.7612 9.32 18.2139C10.5897 18.9859 11.631 20.0303 12.8122 21.3407C13.0845 21.6428 13.5727 21.5952 13.7777 21.2439C13.8684 21.0886 13.8843 20.9006 13.8209 20.7323L10.6006 12.1805C10.3079 11.4034 10.7007 10.5362 11.4778 10.2435C12.2376 9.95742 13.0872 10.3261 13.3973 11.0764L16.492 18.565C16.6236 18.8834 16.9841 19.0398 17.3064 18.9184C17.6087 18.8046 17.7782 18.4828 17.7011 18.1692L15.4524 9.01579C15.2191 8.06614 15.8006 7.10737 16.7506 6.87538C17.7139 6.64012 18.6825 7.24264 18.8972 8.21077L20.7617 16.6179C20.838 16.9619 21.1603 17.1938 21.5108 17.1569C21.8786 17.1182 22.1512 16.7973 22.1299 16.428L21.7553 9.93432C21.7031 9.03008 22.4388 8.27631 23.344 8.30647C24.1381 8.33293 24.7818 8.95922 24.8299 9.75234L25.2859 17.2667C25.3844 18.8893 24.7291 20.4392 23.6619 21.6654C22.6792 22.7944 22.0162 23.8447 21.3886 25.3011C21.2348 25.6581 21.3889 26.0706 21.733 26.2515C22.0497 26.418 22.4405 26.3414 22.6681 26.0653C25.5708 22.5444 27.4574 19.4448 29.6674 15.9397C30.087 15.2742 30.92 15.0025 31.6527 15.2889C32.4609 15.6049 32.8852 16.4938 32.6226 17.3209L29.6005 26.8384C29.314 27.7408 28.9358 28.6149 28.4195 29.4086C27.4417 30.9118 26.6826 31.6924 25.3988 32.3815C24.6375 32.7901 23.8076 33.0606 22.9583 33.2187C21.3155 33.5246 20.2799 33.4075 18.8573 32.8849C18.3754 32.6491 17.845 32.3503 17.3546 32.0584C16.1684 31.3525 15.1278 30.4378 14.2366 29.3837Z" fill="white"></path>
</svg><style>@media (prefers-color-scheme: light) { :root { filter: none; } }
@media (prefers-color-scheme: dark) { :root { filter: none; } }
</style></svg>