<svg width="28" height="30" viewBox="0 0 28 30" fill="none" xmlns="http://www.w3.org/2000/svg">
<path d="M7.8735 25.2876C5.72962 22.8933 1.91879 18.378 0.513938 15.067C0.43566 14.8825 0.405594 14.6847 0.415872 14.4845C0.464143 13.5446 1.40559 12.9139 2.22334 13.3798C3.61771 14.1743 4.77393 15.2699 6.08919 16.6483C6.39242 16.9661 6.91807 16.8998 7.12864 16.5143C7.22178 16.3438 7.23312 16.1404 7.15952 15.9606L3.42084 6.82714C3.08109 5.99714 3.47851 5.04887 4.30851 4.70911C5.11995 4.37696 6.04853 4.74892 6.40626 5.54941L9.97676 13.539C10.1285 13.8786 10.5225 14.0365 10.8668 13.8955C11.1896 13.7634 11.3627 13.4108 11.2699 13.0746L8.56174 3.26186C8.28077 2.24381 8.87914 1.19093 9.89758 0.911357C10.9304 0.627848 11.9944 1.24862 12.2559 2.2872L14.5265 11.3061C14.6194 11.6751 14.9745 11.9156 15.3516 11.865C15.7476 11.8119 16.032 11.4571 15.9977 11.0591L15.3942 4.06027C15.3102 3.08569 16.0813 2.24939 17.0595 2.25421C17.9176 2.25843 18.6316 2.91482 18.7079 3.76956L19.4306 11.8678C19.5866 13.6165 18.9267 15.3098 17.8121 16.6663C16.7859 17.9152 16.1024 19.0695 15.4695 20.6609C15.3143 21.0511 15.4933 21.4917 15.8704 21.6764C16.2174 21.8465 16.6368 21.7517 16.8741 21.4467C19.8999 17.5567 21.8416 14.1526 24.12 10.3009C24.5525 9.56966 25.4435 9.25075 26.2432 9.5375C27.1254 9.85383 27.6108 10.8005 27.3526 11.7014L24.3818 22.0688C24.1002 23.0518 23.7187 24.0071 23.1856 24.8797C22.1761 26.5325 21.3805 27.3985 20.0157 28.1818C19.2064 28.6462 18.3188 28.9637 17.4067 29.1604C15.6425 29.5409 14.521 29.4463 12.9692 28.9257C12.4417 28.686 11.86 28.3797 11.3216 28.0796C10.0194 27.3538 8.86793 26.3982 7.8735 25.2876Z" fill="white"/>
</svg>
