<svg xmlns="http://www.w3.org/2000/svg" width="48" height="48" viewBox="0 0 48 48" fill="none">
  <path d="M17.8744 34.2881C15.7305 31.8938 11.9196 27.3785 10.5148 24.0675C10.4365 23.883 10.4064 23.6852 10.4167 23.485C10.465 22.5451 11.4064 21.9144 12.2242 22.3803C13.6186 23.1748 14.7748 24.2704 16.09 25.6488C16.3933 25.9666 16.9189 25.9003 17.1295 25.5148C17.2226 25.3443 17.234 25.1409 17.1604 24.9611L13.4217 15.8276C13.0819 14.9976 13.4794 14.0494 14.3094 13.7096C15.1208 13.3774 16.0494 13.7494 16.4071 14.5499L19.9776 22.5395C20.1294 22.8791 20.5234 23.0369 20.8677 22.896C21.1905 22.7639 21.3636 22.4113 21.2708 22.0751L18.5626 12.2623C18.2816 11.2443 18.88 10.1914 19.8984 9.91184C20.9312 9.62834 21.9953 10.2491 22.2567 11.2877L24.5273 20.3066C24.6203 20.6756 24.9753 20.9161 25.3525 20.8655C25.7485 20.8124 26.0329 20.4576 25.9985 20.0596L25.3951 13.0608C25.311 12.0862 26.0821 11.2499 27.0603 11.2547C27.9184 11.2589 28.6325 11.9153 28.7088 12.77L29.4314 20.8683C29.5875 22.617 28.9275 24.3103 27.813 25.6668C26.7867 26.9157 26.1032 28.07 25.4703 29.6614C25.3151 30.0516 25.4942 30.4921 25.8712 30.6769C26.2182 30.8469 26.6377 30.7522 26.875 30.4472C29.9007 26.5572 31.8424 23.1531 34.1208 19.3014C34.5533 18.5701 35.4444 18.2512 36.2441 18.538C37.1263 18.8543 37.6116 19.801 37.3535 20.7019L34.3827 31.0693C34.101 32.0523 33.7195 33.0076 33.1865 33.8802C32.177 35.533 31.3814 36.399 30.0165 37.1823C29.2073 37.6467 28.3196 37.9641 27.4075 38.1609C25.6434 38.5414 24.5218 38.4468 22.97 37.9262C22.4426 37.6865 21.8608 37.3801 21.3224 37.0801C20.0202 36.3543 18.8688 35.3987 17.8744 34.2881Z" fill="white"/>
</svg>