<svg xmlns="http://www.w3.org/2000/svg" width="256" height="256" viewBox="0 0 256 256" fill="none">
  <path d="M128 0C198.692 0 256 57.3075 256 128C256 198.692 198.692 256 128 256C106.31 256 85.8805 250.603 67.9793 241.082C65.4265 239.724 62.4613 239.311 59.6684 240.06L11.4494 252.981C6.38682 254.337 1.75413 249.705 3.11062 244.642L16.0167 196.475C16.7662 193.677 16.3513 190.707 14.9884 188.152C5.42316 170.22 0 149.743 0 128C0 57.3075 57.3075 0 128 0Z" fill="#262626"/>
  <path d="M91.1204 188.057C78.8238 173.513 57.0096 146.126 49.2448 126.277C48.8122 125.171 48.6673 123.994 48.7619 122.81C49.2059 117.25 54.8887 113.673 59.6543 116.57C67.7803 121.511 74.4449 128.195 82.0041 136.581C83.7468 138.515 86.8717 138.21 88.1838 135.962C88.7642 134.968 88.8656 133.765 88.4599 132.687L67.8499 77.9565C65.9769 72.9828 68.4906 67.4325 73.4643 65.5595C78.3267 63.7285 83.7646 66.088 85.749 70.8899L105.555 118.817C106.397 120.854 108.704 121.856 110.767 121.079C112.702 120.35 113.787 118.291 113.294 116.284L98.9018 57.702C97.4087 51.6243 101.13 45.4882 107.21 44.0034C113.376 42.4978 119.574 46.3538 120.948 52.5499L132.881 106.355C133.37 108.557 135.432 110.042 137.675 109.805C140.029 109.557 141.774 107.503 141.637 105.14L139.24 63.5806C138.906 57.7935 143.614 52.9694 149.408 53.1624C154.49 53.3317 158.61 57.34 158.918 62.4159L161.836 110.508C162.466 120.892 158.273 130.812 151.442 138.66C145.153 145.885 140.91 152.607 136.894 161.928C135.909 164.213 136.895 166.853 139.097 168.011C141.124 169.076 143.625 168.586 145.082 166.819C163.659 144.285 175.734 124.448 189.878 102.015C192.563 97.7561 197.894 96.0169 202.583 97.85C207.756 99.8721 210.471 105.561 208.791 110.855L189.45 171.767C187.616 177.542 185.195 183.136 181.891 188.216C175.633 197.837 170.775 202.832 162.558 207.243C157.686 209.858 152.375 211.589 146.939 212.601C136.425 214.558 129.798 213.809 120.693 210.464C117.609 208.955 114.214 207.043 111.075 205.175C103.484 200.657 96.8242 194.803 91.1204 188.057Z" fill="white"/>
</svg>