<svg xmlns="http://www.w3.org/2000/svg" width="32" height="32" viewBox="0 0 32 32" fill="none">
  <path d="M16 0C24.8366 0 32 7.16344 32 16C32 24.8366 24.8366 32 16 32C13.2887 32 10.7351 31.3254 8.49741 30.1352C8.17832 29.9655 7.80766 29.9139 7.45856 30.0075L1.43118 31.6226C0.798353 31.7922 0.219267 31.2131 0.388828 30.5803L2.00209 24.5593C2.09578 24.2097 2.04391 23.8384 1.87355 23.519C0.677896 21.2774 0 18.7179 0 16C0 7.16344 7.16344 0 16 0Z" fill="#F97316"/>
  <path d="M11.3905 23.507C9.85346 21.689 7.12669 18.2656 6.15609 15.7845C6.10201 15.6462 6.08391 15.4991 6.09572 15.3511C6.15123 14.6562 6.86157 14.209 7.45727 14.5711C8.47302 15.1887 9.3061 16.0243 10.251 17.0726C10.4688 17.3142 10.8594 17.2762 11.0235 16.9952C11.096 16.8709 11.1087 16.7205 11.058 16.5858L8.48172 9.74443C8.2476 9.12272 8.56181 8.42894 9.18352 8.19482C9.79133 7.96594 10.4711 8.26088 10.7191 8.86112L13.1949 14.852C13.3001 15.1067 13.5885 15.2318 13.8464 15.1347C14.0882 15.0437 14.2238 14.7863 14.1622 14.5353L12.3632 7.21263C12.1766 6.45291 12.6418 5.6859 13.4017 5.5003C14.1724 5.3121 14.9472 5.79411 15.119 6.56862L16.6106 13.2943C16.6717 13.5695 16.9295 13.7551 17.2099 13.7255C17.5042 13.6945 17.7222 13.4378 17.7052 13.1424L17.4055 7.94745C17.3638 7.22407 17.9523 6.62105 18.6765 6.64518C19.3118 6.66635 19.8267 7.16738 19.8652 7.80187L20.23 13.8133C20.3088 15.1114 19.7846 16.3514 18.9308 17.3323C18.1447 18.2355 17.6143 19.0758 17.1122 20.2409C16.9891 20.5265 17.1124 20.8565 17.3877 21.0012C17.641 21.1344 17.9536 21.0731 18.1357 20.8522C20.4579 18.0355 21.9672 15.5558 23.7352 12.7517C24.0708 12.2194 24.7373 12.002 25.3234 12.2311C25.97 12.4839 26.3094 13.195 26.0993 13.8567L23.6817 21.4707C23.4525 22.1926 23.1499 22.8919 22.7369 23.5269C21.9546 24.7295 21.3473 25.3539 20.3203 25.9052C19.7113 26.2321 19.0474 26.4485 18.3679 26.575C17.0536 26.8196 16.2252 26.726 15.0871 26.3079C14.7016 26.1193 14.2773 25.8803 13.8849 25.6467C12.936 25.082 12.1035 24.3502 11.3905 23.507Z" fill="white"/>
</svg>