<svg xmlns="http://www.w3.org/2000/svg" width="32" height="32" viewBox="0 0 32 32" fill="none">
  <path d="M0 16C0 2.824 2.824 0 16 0C29.176 0 32 2.824 32 16C32 29.176 29.176 32 16 32C2.824 32 0 29.176 0 16Z" fill="#171717"/>
  <path d="M17.6667 6.95801C24.5292 6.95801 26 8.42884 26 15.2913C26 22.1538 24.5292 23.6247 17.6667 23.6247H16.1034V26.5413L13.5179 25.6885C11.801 25.1221 10.9423 24.8389 10.2277 24.4344C9.11077 23.8021 8.17167 22.9268 7.4624 21.8921C6.96081 21.3361 6.61673 20.6175 6.38818 19.6965C6.29644 19.4065 6.22032 19.1101 6.16032 18.8086C6.00006 18.0032 6 17.0993 6 15.2913C6 8.42884 7.47083 6.95801 14.3333 6.95801H17.6667Z" fill="white"/>
</svg>