<svg width="103" height="36" viewBox="0 0 103 36" fill="none" xmlns="http://www.w3.org/2000/svg">
<path d="M8 18C8 9.765 9.765 8 18 8C26.235 8 28 9.765 28 18C28 26.235 26.235 28 18 28C9.765 28 8 26.235 8 18Z" fill="#171717"/>
<path d="M19.0417 12.3486C23.3307 12.3486 24.25 13.2679 24.25 17.557C24.25 21.846 23.3307 22.7653 19.0417 22.7653H18.0646V24.5882L16.4487 24.0552C15.3756 23.7012 14.8389 23.5242 14.3923 23.2714C13.6942 22.8762 13.1073 22.3291 12.664 21.6824C12.3505 21.335 12.1355 20.8858 11.9926 20.3102C11.9353 20.1289 11.8877 19.9437 11.8502 19.7552C11.75 19.2519 11.75 18.6869 11.75 17.557C11.75 13.2679 12.6693 12.3486 16.9583 12.3486H19.0417Z" fill="white"/>
<path d="M89.193 25.4992C88.1131 25.4992 87.1664 25.2607 86.3529 24.7839C85.5394 24.307 84.9153 23.6619 84.4805 22.8484C84.0458 22.0209 83.8284 21.1233 83.8284 20.1556C83.8284 19.1878 84.0458 18.2972 84.4805 17.4838C84.9153 16.6703 85.5394 16.0251 86.3529 15.5483C87.1664 15.0714 88.1131 14.833 89.193 14.833C90.2729 14.833 91.2196 15.0714 92.0331 15.5483C92.8466 16.0251 93.4707 16.6703 93.9055 17.4838C94.3543 18.2972 94.5787 19.1878 94.5787 20.1556C94.5787 21.1233 94.3543 22.0209 93.9055 22.8484C93.4707 23.6619 92.8466 24.307 92.0331 24.7839C91.2196 25.2607 90.2729 25.4992 89.193 25.4992ZM89.193 23.1219C89.726 23.1219 90.1888 22.9887 90.5815 22.7222C90.9882 22.4557 91.2898 22.0981 91.4861 21.6492C91.6965 21.2004 91.8017 20.7025 91.8017 20.1556C91.8017 19.6226 91.6965 19.1317 91.4861 18.6829C91.2898 18.2341 90.9882 17.8765 90.5815 17.61C90.1888 17.3435 89.726 17.2103 89.193 17.2103C88.646 17.2103 88.1762 17.3435 87.7835 17.61C87.4048 17.8765 87.1103 18.2341 86.8999 18.6829C86.7035 19.1317 86.6054 19.6226 86.6054 20.1556C86.6054 20.7025 86.7035 21.2004 86.8999 21.6492C87.1103 22.0981 87.4048 22.4557 87.7835 22.7222C88.1762 22.9887 88.646 23.1219 89.193 23.1219Z" fill="#171717"/>
<path d="M80.0009 25.2475V15.0862H82.6727V25.2475H80.0009ZM81.3263 10.5C81.7751 10.5 82.1538 10.6543 82.4623 10.9628C82.7709 11.2714 82.9252 11.6501 82.9252 12.0989C82.9252 12.3934 82.855 12.6599 82.7148 12.8983C82.5745 13.1367 82.3782 13.3261 82.1257 13.4663C81.8873 13.6066 81.6208 13.6767 81.3263 13.6767C80.8915 13.6767 80.5128 13.5224 80.1902 13.2139C79.8817 12.9053 79.7274 12.5337 79.7274 12.0989C79.7274 11.8043 79.7975 11.5379 79.9378 11.2994C80.0921 11.047 80.2884 10.8506 80.5269 10.7104C80.7793 10.5701 81.0458 10.5 81.3263 10.5Z" fill="#171717"/>
<path d="M76.8271 25.4784C76.3643 25.4784 75.9646 25.3101 75.628 24.9735C75.2913 24.6369 75.123 24.2372 75.123 23.7744C75.123 23.4658 75.2002 23.1853 75.3545 22.9329C75.5087 22.6664 75.7121 22.456 75.9646 22.3017C76.231 22.1475 76.5186 22.0703 76.8271 22.0703C77.2899 22.0703 77.6897 22.2386 78.0263 22.5752C78.3629 22.9118 78.5312 23.3115 78.5312 23.7744C78.5312 24.0829 78.454 24.3704 78.2998 24.6369C78.1455 24.8894 77.9351 25.0927 77.6686 25.247C77.4021 25.4013 77.1216 25.4784 76.8271 25.4784Z" fill="#171717"/>
<path d="M72.6006 25.5003C71.6609 25.5003 70.9456 25.2618 70.4547 24.785C69.9639 24.3081 69.7184 23.6209 69.7184 22.7233V12.3096H72.4113V22.008C72.4113 22.022 72.4113 22.043 72.4113 22.0711C72.4113 22.0851 72.4113 22.0991 72.4113 22.1132C72.4393 22.4217 72.5305 22.6672 72.6847 22.8495C72.8531 23.0318 73.0704 23.123 73.3369 23.123C73.5192 23.123 73.7016 23.0949 73.8839 23.0388C74.0662 22.9687 74.1925 22.8986 74.2626 22.8285L74.8306 24.8481C74.6202 25.0444 74.3257 25.1987 73.947 25.3109C73.5683 25.4371 73.1195 25.5003 72.6006 25.5003ZM68.0354 17.4217V15.0866H74.473V17.4217H68.0354Z" fill="#171717"/>
<path d="M61.5573 25.4992C60.7017 25.4992 59.9303 25.2888 59.2431 24.868C58.5559 24.4473 58.0159 23.8372 57.6232 23.0377C57.2445 22.2243 57.0552 21.2706 57.0552 20.1766C57.0552 19.0826 57.2445 18.1359 57.6232 17.3365C58.0159 16.5371 58.5559 15.92 59.2431 15.4852C59.9303 15.0504 60.7017 14.833 61.5573 14.833C62.2164 14.833 62.8406 14.9943 63.4296 15.3169C64.0327 15.6254 64.5306 16.0812 64.9233 16.6843L64.8602 18.6408C64.6779 18.2622 64.3413 17.9326 63.8504 17.6521C63.3735 17.3716 62.8826 17.2313 62.3777 17.2313C61.8728 17.2313 61.424 17.3575 61.0313 17.61C60.6526 17.8484 60.3511 18.192 60.1267 18.6408C59.9163 19.0756 59.8111 19.5875 59.8111 20.1766C59.8111 21.0602 60.0496 21.7755 60.5264 22.3225C61.0033 22.8554 61.6204 23.1219 62.3777 23.1219C62.8826 23.1219 63.3735 22.9887 63.8504 22.7222C64.3413 22.4557 64.6779 22.1191 64.8602 21.7124L64.9233 23.6689C64.5025 24.2579 64.0047 24.7138 63.4296 25.0363C62.8546 25.3449 62.2305 25.4992 61.5573 25.4992ZM64.6919 25.2467V15.0855H67.3847V25.2467H64.6919Z" fill="#171717"/>
<path d="M48.0409 25.2472V23.2486L52.6271 17.4211H48.0409V15.0859H56.2456V17.0214L51.5963 22.912H56.3298V25.2472H48.0409Z" fill="#171717"/>
<path d="M41.487 25.4995C40.1266 25.4995 38.8923 25.1979 37.7843 24.5948C36.6904 23.9918 35.8278 23.1362 35.1967 22.0282C34.5656 20.9202 34.25 19.658 34.25 18.2414C34.25 16.8109 34.5726 15.5486 35.2177 14.4546C35.8629 13.3466 36.7465 12.4911 37.8685 11.888C38.9905 11.2849 40.2388 10.9834 41.6132 10.9834C42.6371 10.9834 43.5277 11.1447 44.285 11.4673C45.0564 11.7758 45.7086 12.1896 46.2415 12.7085C46.7745 13.2134 47.2233 13.7814 47.588 14.4126L45.0003 15.6748C44.7058 15.0858 44.25 14.6019 43.6328 14.2232C43.0298 13.8305 42.3285 13.6342 41.5291 13.6342C40.7296 13.6342 40.0073 13.8305 39.3622 14.2232C38.717 14.6019 38.2121 15.1419 37.8475 15.8431C37.4968 16.5444 37.3215 17.3438 37.3215 18.2414C37.3215 19.139 37.5038 19.9385 37.8685 20.6397C38.2332 21.341 38.7381 21.888 39.3832 22.2807C40.0284 22.6594 40.7507 22.8487 41.5501 22.8487C42.3355 22.8487 43.0298 22.6594 43.6328 22.2807C44.25 21.902 44.7058 21.4111 45.0003 20.808L47.588 22.0493C47.2093 22.7085 46.7535 23.2905 46.2205 23.7954C45.6875 24.3003 45.0213 24.7141 44.2219 25.0366C43.4365 25.3452 42.5249 25.4995 41.487 25.4995Z" fill="#171717"/>
</svg>
