<svg width="143" height="40" viewBox="0 0 143 40" fill="none" xmlns="http://www.w3.org/2000/svg">
<path d="M20 0C31.0457 0 40 8.9543 40 20C40 31.0457 31.0457 40 20 40C16.611 40 13.4191 39.1566 10.6221 37.6689C10.2232 37.4568 9.75963 37.3928 9.32324 37.5098L1.78906 39.5283C0.998078 39.7403 0.274502 39.0166 0.486328 38.2256L2.50293 30.6992C2.62003 30.2622 2.55475 29.7977 2.3418 29.3984C0.847345 26.5965 0 23.3973 0 20C2.2549e-07 8.9543 8.9543 2.25505e-07 20 0ZM18.8984 8.21094C18.6838 7.24295 17.7152 6.64003 16.752 6.875C15.8021 7.10697 15.22 8.06605 15.4531 9.01562L17.7021 18.1689C17.7792 18.4825 17.6097 18.804 17.3076 18.918C16.9854 19.0393 16.6249 18.8835 16.4932 18.5654L13.3984 11.0762C13.0883 10.326 12.2382 9.95708 11.4785 10.2432C10.7015 10.5359 10.3089 11.4036 10.6016 12.1807L13.8223 20.7324C13.8855 20.9007 13.869 21.0889 13.7783 21.2441C13.5732 21.595 13.0857 21.6426 12.8135 21.3408C11.6324 20.0305 10.5909 18.9858 9.32129 18.2139C8.57679 17.7612 7.68878 18.32 7.61914 19.1885C7.60437 19.3734 7.62678 19.5577 7.69434 19.7305C8.90757 22.8319 12.3159 27.1113 14.2373 29.3838C15.1285 30.4378 16.1693 31.3527 17.3555 32.0586C17.8459 32.3505 18.3766 32.649 18.8584 32.8848C20.2809 33.4073 21.3164 33.5245 22.959 33.2188C23.8082 33.0606 24.6383 32.7903 25.3994 32.3818C26.6832 31.6928 27.4431 30.9114 28.4209 29.4082C28.937 28.6146 29.3151 27.7401 29.6016 26.8379L32.624 17.3213C32.8866 16.4942 32.4615 15.605 31.6533 15.2891C30.9207 15.0028 30.0875 15.2741 29.668 15.9395C27.458 19.4445 25.5717 22.5446 22.6689 26.0654C22.4414 26.3413 22.0509 26.4181 21.7344 26.252C21.3902 26.071 21.2358 25.6578 21.3896 25.3008C22.0172 23.8446 22.6805 22.7939 23.6631 21.665C24.7302 20.4389 25.3856 18.8891 25.2871 17.2666L24.8311 9.75195C24.7827 8.95902 24.1387 8.3331 23.3447 8.30664C22.4396 8.27663 21.7037 9.03042 21.7559 9.93457L22.1309 16.4277C22.1522 16.797 21.8796 17.1185 21.5117 17.1572C21.1614 17.1941 20.8391 16.962 20.7627 16.6182L18.8984 8.21094Z" fill="white"/>
<path d="M129.023 31.9366C128.53 31.9366 128.045 31.8865 127.568 31.7865C127.091 31.6865 126.641 31.521 126.218 31.2901L126.945 28.4505C127.191 28.589 127.461 28.6968 127.753 28.7737C128.053 28.8507 128.33 28.8892 128.584 28.8892C129.046 28.8892 129.427 28.7891 129.727 28.589C130.027 28.389 130.25 28.0619 130.396 27.6079L130.639 26.8691L126.091 15.1182H129.75L132.543 23.4523L135.256 15.1182H138.823L133.929 28.1042C133.544 29.0738 133.101 29.8357 132.601 30.3898C132.101 30.9515 131.551 31.3479 130.95 31.5787C130.35 31.8173 129.708 31.9366 129.023 31.9366Z" fill="white"/>
<path d="M117.773 27.1227C116.657 27.1227 115.66 26.8649 114.783 26.3493C113.906 25.826 113.213 25.0988 112.705 24.1676C112.205 23.2365 111.955 22.163 111.955 20.9471C111.955 20.0313 112.097 19.1964 112.382 18.4422C112.675 17.6881 113.082 17.0378 113.606 16.4914C114.129 15.9373 114.745 15.5141 115.453 15.2217C116.168 14.9215 116.942 14.7715 117.773 14.7715C118.881 14.7715 119.816 15.01 120.578 15.4872C121.347 15.9643 121.909 16.5876 122.263 17.3572L121.79 18.0844V15.1178H124.722V26.7764H121.79V23.8098L122.263 24.537C121.909 25.3065 121.347 25.9299 120.578 26.407C119.816 26.8841 118.881 27.1227 117.773 27.1227ZM118.315 24.2023C118.9 24.2023 119.424 24.0714 119.885 23.8098C120.347 23.5404 120.709 23.1634 120.97 22.6786C121.24 22.1937 121.374 21.6166 121.374 20.9471C121.374 20.2776 121.24 19.7004 120.97 19.2156C120.709 18.7308 120.347 18.3576 119.885 18.0959C119.424 17.8266 118.9 17.6919 118.315 17.6919C117.738 17.6919 117.219 17.8266 116.757 18.0959C116.295 18.3576 115.93 18.7308 115.66 19.2156C115.399 19.7004 115.268 20.2776 115.268 20.9471C115.268 21.6166 115.399 22.1937 115.66 22.6786C115.93 23.1634 116.295 23.5404 116.757 23.8098C117.219 24.0714 117.738 24.2023 118.315 24.2023Z" fill="white"/>
<path d="M96.7977 26.7768L93.2539 15.1182H96.5437L98.6215 22.8983L100.976 15.1182H104.128L106.378 22.8983L108.456 15.1182H111.608L108.064 26.7768H104.682L102.488 19.2737L100.18 26.7768H96.7977Z" fill="white"/>
<path d="M83.3343 31.9366C82.8418 31.9366 82.357 31.8865 81.8799 31.7865C81.4027 31.6865 80.9526 31.521 80.5293 31.2901L81.2565 28.4505C81.5028 28.589 81.7721 28.6968 82.0646 28.7737C82.3647 28.8507 82.6417 28.8892 82.8957 28.8892C83.3574 28.8892 83.7383 28.7891 84.0384 28.589C84.3386 28.389 84.5617 28.0619 84.7079 27.6079L84.9503 26.8691L80.4023 15.1182H84.0615L86.855 23.4523L89.5676 15.1182H93.1345L88.2402 28.1042C87.8554 29.0738 87.4129 29.8357 86.9127 30.3898C86.4125 30.9515 85.8623 31.3479 85.262 31.5787C84.6618 31.8173 84.0192 31.9366 83.3343 31.9366Z" fill="white"/>
<path d="M74.3186 27.1227C73.0488 27.1227 71.933 26.8649 70.971 26.3493C70.0091 25.8337 69.2588 25.1142 68.7201 24.1907C68.1815 23.2673 67.9121 22.186 67.9121 20.9471C67.9121 20.0467 68.066 19.2195 68.3738 18.4653C68.6893 17.7111 69.128 17.0609 69.6898 16.5145C70.2592 15.9604 70.9249 15.5333 71.6867 15.2332C72.4563 14.9254 73.2989 14.7715 74.2147 14.7715C75.2228 14.7715 76.1155 14.9485 76.8927 15.3025C77.6776 15.6565 78.3279 16.1528 78.8435 16.7915C79.3591 17.4226 79.7169 18.1652 79.917 19.0194C80.1248 19.8736 80.144 20.8009 79.9747 21.8013H71.0403C71.0403 22.34 71.1788 22.8094 71.4559 23.2095C71.7406 23.6097 72.1369 23.9252 72.6448 24.1561C73.1604 24.3792 73.7606 24.4908 74.4455 24.4908C75.1227 24.4908 75.7692 24.3985 76.3848 24.2138C77.0004 24.0291 77.5814 23.7482 78.1278 23.3711L79.2475 25.6798C78.8781 25.9645 78.4164 26.2185 77.8623 26.4416C77.3082 26.6571 76.7195 26.8225 76.0962 26.938C75.4806 27.0611 74.888 27.1227 74.3186 27.1227ZM71.2365 19.4811H76.7426C76.7195 18.7962 76.4771 18.2537 76.0154 17.8535C75.5614 17.4533 74.9342 17.2533 74.1339 17.2533C73.3335 17.2533 72.6679 17.4533 72.1369 17.8535C71.6136 18.2537 71.3135 18.7962 71.2365 19.4811Z" fill="white"/>
<path d="M52.0361 26.7766V10.6162H55.4529V16.7456H62.3095V10.6162H65.7263V26.7766H62.3095V19.8738H55.4529V26.7766H52.0361Z" fill="white"/>
</svg>
