<svg width="114" height="32" viewBox="0 0 114 32" fill="none" xmlns="http://www.w3.org/2000/svg">
<path d="M15.999 0C24.8356 0 31.999 7.16344 31.999 16C31.999 24.8366 24.8356 32 15.999 32C13.2877 32 10.7341 31.3254 8.49643 30.1352C8.17734 29.9655 7.80669 29.9139 7.45758 30.0075L1.4302 31.6226C0.797376 31.7922 0.21829 31.2131 0.387851 30.5803L2.00111 24.5593C2.0948 24.2097 2.04293 23.8384 1.87257 23.519C0.676919 21.2774 -0.000976562 18.7179 -0.000976562 16C-0.000976562 7.16344 7.16247 0 15.999 0Z" fill="white"/>
<path d="M11.3896 23.507C9.85249 21.689 7.12572 18.2656 6.15511 15.7845C6.10103 15.6462 6.08293 15.4991 6.09475 15.3511C6.15025 14.6562 6.8606 14.209 7.4563 14.5711C8.47205 15.1887 9.30512 16.0243 10.25 17.0726C10.4679 17.3142 10.8585 17.2762 11.0225 16.9952C11.095 16.8709 11.1077 16.7205 11.057 16.5858L8.48074 9.74443C8.24663 9.12272 8.56083 8.42894 9.18254 8.19482C9.79035 7.96594 10.4701 8.26088 10.7181 8.86112L13.1939 14.852C13.2992 15.1067 13.5876 15.2318 13.8454 15.1347C14.0872 15.0437 14.2228 14.7863 14.1612 14.5353L12.3622 7.21263C12.1756 6.45291 12.6408 5.6859 13.4008 5.5003C14.1715 5.3121 14.9463 5.79411 15.118 6.56862L16.6097 13.2943C16.6707 13.5695 16.9286 13.7551 17.2089 13.7255C17.5032 13.6945 17.7212 13.4378 17.7042 13.1424L17.4045 7.94745C17.3628 7.22407 17.9513 6.62105 18.6755 6.64518C19.3108 6.66635 19.8257 7.16738 19.8642 7.80187L20.229 13.8133C20.3078 15.1114 19.7836 16.3514 18.9298 17.3323C18.1437 18.2355 17.6133 19.0758 17.1112 20.2409C16.9881 20.5265 17.1114 20.8565 17.3867 21.0012C17.6401 21.1344 17.9527 21.0731 18.1347 20.8522C20.4569 18.0355 21.9662 15.5558 23.7342 12.7517C24.0699 12.2194 24.7363 12.002 25.3224 12.2311C25.969 12.4839 26.3084 13.195 26.0984 13.8567L23.6807 21.4707C23.4515 22.1926 23.1489 22.8919 22.7359 23.5269C21.9537 24.7295 21.3463 25.3539 20.3193 25.9052C19.7103 26.2321 19.0464 26.4485 18.3669 26.575C17.0527 26.8196 16.2242 26.726 15.0861 26.3079C14.7006 26.1193 14.2763 25.8803 13.8839 25.6467C12.935 25.082 12.1025 24.3502 11.3896 23.507Z" fill="#171717"/>
<path d="M100.788 20.755L96.958 11.9219H99.8503L103.485 20.325L100.788 20.755ZM98.7364 25.1911L104.501 11.9219H107.394L101.648 25.1911H98.7364Z" fill="white"/>
<path d="M91.54 21.7322C90.8496 21.7322 90.2372 21.6019 89.7031 21.3414C89.1819 21.0678 88.7781 20.69 88.4915 20.2079C88.2048 19.7259 88.0615 19.1657 88.0615 18.5273C88.0615 17.8498 88.2179 17.2766 88.5305 16.8076C88.8432 16.3255 89.2601 15.9542 89.7812 15.6937C90.3154 15.4331 90.9082 15.3028 91.5596 15.3028C92.5106 15.3028 93.2793 15.5178 93.8656 15.9477C94.4518 16.3776 94.8427 16.9965 95.0381 17.8042L93.8069 17.5893V15.3614C93.8069 15.0097 93.6832 14.7035 93.4356 14.443C93.1881 14.1824 92.7907 14.0521 92.2436 14.0521C91.8918 14.0521 91.4879 14.0977 91.0319 14.1889C90.576 14.2671 90.1069 14.4234 89.6249 14.6579L88.7846 12.6255C89.3578 12.3389 89.9701 12.1109 90.6216 11.9415C91.286 11.7722 91.9635 11.6875 92.6539 11.6875C93.5399 11.6875 94.2825 11.8438 94.8818 12.1565C95.4811 12.4692 95.924 12.9121 96.2106 13.4854C96.5103 14.0586 96.6601 14.7231 96.6601 15.4787V21.4782H94.3346L93.7679 19.6217L95.0381 19.2308C94.8297 20.0125 94.4323 20.6248 93.846 21.0678C93.2598 21.5107 92.4911 21.7322 91.54 21.7322ZM92.4194 19.6998C92.8494 19.6998 93.1881 19.5891 93.4356 19.3676C93.6962 19.1461 93.8265 18.866 93.8265 18.5273C93.8265 18.1625 93.6962 17.8759 93.4356 17.6674C93.1881 17.459 92.8494 17.3548 92.4194 17.3548C91.9895 17.3548 91.6508 17.459 91.4032 17.6674C91.1557 17.8759 91.0319 18.1625 91.0319 18.5273C91.0319 18.866 91.1557 19.1461 91.4032 19.3676C91.6508 19.5891 91.9895 19.6998 92.4194 19.6998Z" fill="white"/>
<path d="M76.5651 21.478L73.6924 11.9219H76.4869L78.5584 19.3284H77.5031L79.9068 11.9219H82.1346L84.5383 19.3284H83.5026L85.5545 11.9219H88.2514L85.3786 21.478H82.8186L80.5908 14.9118H81.4507L79.2228 21.478H76.5651Z" fill="white"/>
<path d="M66.8176 20.755L62.9873 11.9219H65.8796L69.5144 20.325L66.8176 20.755ZM64.7656 25.1911L70.5306 11.9219H73.4229L67.6774 25.1911H64.7656Z" fill="white"/>
<path d="M58.2293 21.654C57.2782 21.654 56.4379 21.4521 55.7083 21.0482C54.9918 20.6444 54.4315 20.0711 54.0277 19.3285C53.6368 18.5859 53.4414 17.713 53.4414 16.7099C53.4414 15.7197 53.6368 14.8468 54.0277 14.0912C54.4315 13.3356 54.9918 12.7493 55.7083 12.3324C56.4379 11.9025 57.2782 11.6875 58.2293 11.6875C59.2064 11.6875 60.0532 11.909 60.7697 12.3519C61.4863 12.7949 62.04 13.3942 62.4308 14.1498C62.8217 14.8924 63.0171 15.7327 63.0171 16.6708C63.0171 16.8401 63.0106 17.003 62.9976 17.1593C62.9845 17.3157 62.9715 17.4394 62.9585 17.5306H55.6692V15.4982H60.7697L60.4375 16.3386C60.4375 15.622 60.2551 15.0357 59.8903 14.5798C59.5386 14.1238 58.9914 13.8958 58.2488 13.8958C57.5844 13.8958 57.0502 14.0977 56.6463 14.5016C56.2555 14.9055 56.0601 15.4396 56.0601 16.104V17.1789C56.0601 17.8954 56.262 18.4556 56.6659 18.8595C57.0828 19.2504 57.656 19.4458 58.3856 19.4458C58.9979 19.4458 59.48 19.322 59.8317 19.0745C60.1965 18.8269 60.5027 18.5208 60.7502 18.156L62.6849 19.2308C62.268 19.9995 61.6817 20.5988 60.9261 21.0287C60.1705 21.4456 59.2715 21.654 58.2293 21.654Z" fill="white"/>
<path d="M49.7536 21.4772V8.16895H52.6067V21.4772H49.7536ZM41.7021 21.4772V8.16895H44.5553V21.4772H41.7021ZM43.5391 16.3376V13.5821H50.7111V16.3376H43.5391Z" fill="white"/>
</svg>
