<svg width="122" height="28" viewBox="0 0 122 28" fill="none" xmlns="http://www.w3.org/2000/svg">
<path d="M14 0C25.529 0 28 2.471 28 14C28 25.529 25.529 28 14 28C2.471 28 0 25.529 0 14C8.51675e-09 2.471 2.471 8.51729e-09 14 0ZM12.542 6.08789C6.5373 6.08789 5.25 7.3752 5.25 13.3799C5.25 14.9615 5.25042 15.7524 5.39062 16.457C5.44312 16.7208 5.50957 16.9807 5.58984 17.2344C5.7898 18.04 6.09053 18.6689 6.5293 19.1553C7.14991 20.0606 7.9719 20.8266 8.94922 21.3799C9.57446 21.7338 10.326 21.981 11.8281 22.4766L14.0908 23.2236V20.6709H15.458C21.4626 20.6709 22.75 19.3843 22.75 13.3799C22.75 7.3752 21.4627 6.08789 15.458 6.08789H12.542Z" fill="#FAFAFA"/>
<path d="M113.67 24.499C112.158 24.499 110.833 24.1652 109.694 23.4976C108.555 22.83 107.681 21.9268 107.073 20.788C106.464 19.6295 106.16 18.3728 106.16 17.018C106.16 15.6632 106.464 14.4163 107.073 13.2775C107.681 12.1386 108.555 11.2354 109.694 10.5678C110.833 9.90021 112.158 9.56641 113.67 9.56641C115.182 9.56641 116.507 9.90021 117.646 10.5678C118.785 11.2354 119.659 12.1386 120.268 13.2775C120.896 14.4163 121.21 15.6632 121.21 17.018C121.21 18.3728 120.896 19.6295 120.268 20.788C119.659 21.9268 118.785 22.83 117.646 23.4976C116.507 24.1652 115.182 24.499 113.67 24.499ZM113.67 21.1708C114.416 21.1708 115.064 20.9843 115.614 20.6112C116.183 20.2382 116.606 19.7375 116.881 19.1091C117.175 18.4808 117.322 17.7838 117.322 17.018C117.322 16.2718 117.175 15.5846 116.881 14.9563C116.606 14.328 116.183 13.8273 115.614 13.4542C115.064 13.0811 114.416 12.8946 113.67 12.8946C112.904 12.8946 112.247 13.0811 111.697 13.4542C111.167 13.8273 110.754 14.328 110.46 14.9563C110.185 15.5846 110.047 16.2718 110.047 17.018C110.047 17.7838 110.185 18.4808 110.46 19.1091C110.754 19.7375 111.167 20.2382 111.697 20.6112C112.247 20.9843 112.904 21.1708 113.67 21.1708Z" fill="#FAFAFA"/>
<path d="M100.801 24.1465V9.92073H104.542V24.1465H100.801ZM102.657 3.5C103.285 3.5 103.815 3.71599 104.247 4.14796C104.679 4.57994 104.895 5.11009 104.895 5.73842C104.895 6.15076 104.797 6.52383 104.601 6.85763C104.404 7.19143 104.13 7.4565 103.776 7.65286C103.442 7.84921 103.069 7.94739 102.657 7.94739C102.048 7.94739 101.518 7.7314 101.066 7.29942C100.634 6.86745 100.418 6.34711 100.418 5.73842C100.418 5.32608 100.517 4.95301 100.713 4.61921C100.929 4.26577 101.204 3.99088 101.538 3.79453C101.891 3.59818 102.264 3.5 102.657 3.5Z" fill="#FAFAFA"/>
<path d="M96.358 24.4696C95.71 24.4696 95.1504 24.234 94.6791 23.7627C94.2079 23.2915 93.9723 22.7319 93.9723 22.0839C93.9723 21.6519 94.0803 21.2592 94.2962 20.9058C94.5122 20.5327 94.7969 20.2382 95.1504 20.0222C95.5235 19.8062 95.926 19.6982 96.358 19.6982C97.0059 19.6982 97.5655 19.9339 98.0368 20.4051C98.508 20.8764 98.7436 21.436 98.7436 22.0839C98.7436 22.5159 98.6356 22.9184 98.4197 23.2915C98.2037 23.6449 97.9091 23.9296 97.5361 24.1456C97.163 24.3616 96.7703 24.4696 96.358 24.4696Z" fill="#FAFAFA"/>
<path d="M90.4409 24.5002C89.1253 24.5002 88.1239 24.1664 87.4367 23.4988C86.7494 22.8312 86.4058 21.869 86.4058 20.6124V6.0332H90.1758V19.611C90.1758 19.6306 90.1758 19.6601 90.1758 19.6993C90.1758 19.719 90.1758 19.7386 90.1758 19.7582C90.2151 20.1902 90.3427 20.5338 90.5587 20.7891C90.7943 21.0444 91.0986 21.172 91.4717 21.172C91.727 21.172 91.9822 21.1327 92.2375 21.0542C92.4927 20.956 92.6695 20.8578 92.7676 20.7596L93.5629 23.5871C93.2683 23.862 92.856 24.078 92.3258 24.2351C91.7957 24.4118 91.1674 24.5002 90.4409 24.5002ZM84.0496 13.1903V9.92098H93.0622V13.1903H84.0496Z" fill="#FAFAFA"/>
<path d="M74.9802 24.499C73.7825 24.499 72.7025 24.2045 71.7404 23.6154C70.7783 23.0264 70.0223 22.1722 69.4725 21.053C68.9424 19.9142 68.6773 18.579 68.6773 17.0474C68.6773 15.5159 68.9424 14.1905 69.4725 13.0713C70.0223 11.9521 70.7783 11.0881 71.7404 10.4794C72.7025 9.87075 73.7825 9.56641 74.9802 9.56641C75.9031 9.56641 76.7768 9.79221 77.6015 10.2438C78.4458 10.6758 79.1429 11.3139 79.6927 12.1583L79.6043 14.8974C79.3491 14.3672 78.8778 13.9058 78.1906 13.5131C77.523 13.1204 76.8357 12.924 76.1289 12.924C75.422 12.924 74.7937 13.1008 74.2439 13.4542C73.7137 13.788 73.2916 14.2691 72.9774 14.8974C72.6829 15.5061 72.5356 16.2228 72.5356 17.0474C72.5356 18.2845 72.8694 19.2859 73.537 20.0516C74.2046 20.7978 75.0686 21.1708 76.1289 21.1708C76.8357 21.1708 77.523 20.9843 78.1906 20.6112C78.8778 20.2382 79.3491 19.7669 79.6043 19.1975L79.6927 21.9366C79.1036 22.7613 78.4066 23.3994 77.6015 23.8511C76.7965 24.283 75.9227 24.499 74.9802 24.499ZM79.3687 24.1456V9.91984H83.1387V24.1456H79.3687Z" fill="#FAFAFA"/>
<path d="M56.0572 24.1457V21.3476L62.4779 13.1892H56.0572V9.91992H67.5438V12.6296L61.0347 20.8764H67.6616V24.1457H56.0572Z" fill="#FAFAFA"/>
<path d="M46.8818 24.4993C44.9772 24.4993 43.2493 24.0771 41.6981 23.2328C40.1666 22.3885 38.959 21.1907 38.0754 19.6395C37.1918 18.0883 36.75 16.3212 36.75 14.338C36.75 12.3352 37.2016 10.568 38.1049 9.03649C39.0081 7.4853 40.2451 6.28755 41.8159 5.44323C43.3867 4.59892 45.1343 4.17676 47.0585 4.17676C48.4919 4.17676 49.7387 4.40256 50.7991 4.85417C51.879 5.28615 52.792 5.86539 53.5382 6.5919C54.2843 7.29876 54.9126 8.09399 55.4232 8.97758L51.8004 10.7448C51.3881 9.92007 50.75 9.24265 49.886 8.7125C49.0417 8.16271 48.0599 7.88782 46.9407 7.88782C45.8215 7.88782 44.8103 8.16271 43.9071 8.7125C43.0039 9.24265 42.297 9.99861 41.7865 10.9804C41.2956 11.9621 41.0501 13.0813 41.0501 14.338C41.0501 15.5947 41.3054 16.7139 41.8159 17.6956C42.3264 18.6774 43.0333 19.4432 43.9365 19.993C44.8397 20.5231 45.851 20.7882 46.9702 20.7882C48.0697 20.7882 49.0417 20.5231 49.886 19.993C50.75 19.4628 51.3881 18.7756 51.8004 17.9313L55.4232 19.669C54.893 20.5918 54.2549 21.4067 53.5087 22.1136C52.7626 22.8204 51.8299 23.3997 50.7107 23.8513C49.6111 24.2833 48.3348 24.4993 46.8818 24.4993Z" fill="#FAFAFA"/>
</svg>
