<svg width="72" height="20" viewBox="0 0 72 20" fill="none" xmlns="http://www.w3.org/2000/svg">
<path d="M10.4424 0C15.9652 0 20.4424 4.47715 20.4424 10C20.4424 15.5228 15.9652 20 10.4424 20C8.74783 20 7.1518 19.5784 5.75327 18.8345C5.55383 18.7284 5.32217 18.6962 5.10398 18.7547L1.33687 19.7641C0.941352 19.8701 0.579425 19.5082 0.6854 19.1127L1.69369 15.3496C1.75224 15.131 1.71983 14.899 1.61335 14.6994C0.866068 13.2984 0.442383 11.6987 0.442383 10C0.442383 4.47715 4.91954 0 10.4424 0Z" fill="#737373"/>
<path d="M7.5622 14.6919C6.60153 13.5556 4.8973 11.416 4.29067 9.86528C4.25687 9.77888 4.24556 9.68694 4.25294 9.59445C4.28763 9.16011 4.7316 8.8806 5.10391 9.10697C5.73876 9.49295 6.25943 10.0152 6.84999 10.6703C6.98614 10.8214 7.23027 10.7976 7.33278 10.622C7.37813 10.5443 7.38605 10.4503 7.35435 10.3661L5.74419 6.09027C5.59787 5.7017 5.79425 5.26809 6.18282 5.12176C6.56269 4.97871 6.98753 5.16305 7.14256 5.5382L8.68992 9.28251C8.7557 9.44168 8.93595 9.51989 9.09712 9.45919C9.24825 9.40228 9.333 9.24141 9.29448 9.08458L8.17012 4.5079C8.05348 4.03307 8.34422 3.55369 8.81921 3.43769C9.30088 3.32006 9.78514 3.62132 9.8925 4.10539L10.8248 8.30894C10.8629 8.48094 11.0241 8.59692 11.1993 8.57846C11.3832 8.55909 11.5195 8.39863 11.5089 8.21398L11.3215 4.96716C11.2955 4.51504 11.6633 4.13816 12.1159 4.15324C12.513 4.16647 12.8348 4.47961 12.8589 4.87617L13.0869 8.63333C13.1361 9.44463 12.8085 10.2196 12.2748 10.8327C11.7835 11.3972 11.452 11.9224 11.1382 12.6505C11.0613 12.8291 11.1383 13.0353 11.3104 13.1258C11.4688 13.209 11.6641 13.1707 11.7779 13.0326C13.2293 11.2722 14.1726 9.72239 15.2776 7.96983C15.4874 7.63712 15.9039 7.50124 16.2702 7.64445C16.6744 7.80243 16.8865 8.2469 16.7552 8.66044L15.2442 13.4192C15.1009 13.8704 14.9118 14.3075 14.6537 14.7043C14.1648 15.4559 13.7852 15.8462 13.1433 16.1907C12.7627 16.395 12.3477 16.5303 11.923 16.6094C11.1016 16.7623 10.5839 16.7037 9.87255 16.4424C9.63162 16.3246 9.36642 16.1752 9.12119 16.0292C8.52812 15.6762 8.00781 15.2189 7.5622 14.6919Z" fill="white"/>
<path d="M63.4359 12.9719L61.042 7.45117H62.8497L65.1214 12.7032L63.4359 12.9719ZM62.1535 15.7444L65.7566 7.45117H67.5642L63.9733 15.7444H62.1535Z" fill="#737373"/>
<path d="M57.6555 13.5826C57.224 13.5826 56.8413 13.5012 56.5074 13.3384C56.1817 13.1674 55.9293 12.9312 55.7502 12.6299C55.571 12.3287 55.4814 11.9785 55.4814 11.5796C55.4814 11.1561 55.5792 10.7979 55.7746 10.5047C55.97 10.2035 56.2306 9.97139 56.5563 9.80854C56.8901 9.64569 57.2606 9.56426 57.6677 9.56426C58.2621 9.56426 58.7426 9.69861 59.109 9.96732C59.4754 10.236 59.7197 10.6228 59.8418 11.1276L59.0723 10.9933V9.6009C59.0723 9.38105 58.995 9.1897 58.8403 9.02685C58.6856 8.864 58.4372 8.78257 58.0952 8.78257C57.8754 8.78257 57.6229 8.81107 57.338 8.86807C57.053 8.91692 56.7598 9.01463 56.4586 9.1612L55.9334 7.89096C56.2916 7.71182 56.6743 7.56932 57.0815 7.46347C57.4967 7.35761 57.9202 7.30469 58.3517 7.30469C58.9054 7.30469 59.3695 7.4024 59.7441 7.59782C60.1187 7.79324 60.3955 8.07009 60.5746 8.42837C60.7619 8.78664 60.8556 9.20191 60.8556 9.67419V13.4239H59.4021L59.0479 12.2635L59.8418 12.0193C59.7115 12.5078 59.4632 12.8905 59.0968 13.1674C58.7303 13.4442 58.2499 13.5826 57.6555 13.5826ZM58.2051 12.3124C58.4739 12.3124 58.6856 12.2432 58.8403 12.1048C59.0031 11.9663 59.0845 11.7913 59.0845 11.5796C59.0845 11.3516 59.0031 11.1724 58.8403 11.0421C58.6856 10.9119 58.4739 10.8467 58.2051 10.8467C57.9364 10.8467 57.7247 10.9119 57.57 11.0421C57.4153 11.1724 57.338 11.3516 57.338 11.5796C57.338 11.7913 57.4153 11.9663 57.57 12.1048C57.7247 12.2432 57.9364 12.3124 58.2051 12.3124Z" fill="#737373"/>
<path d="M48.2964 13.4238L46.501 7.45117H48.2476L49.5422 12.0802H48.8827L50.385 7.45117H51.7774L53.2797 12.0802H52.6324L53.9148 7.45117H55.6003L53.8049 13.4238H52.2049L50.8125 9.3199H51.3499L49.9575 13.4238H48.2964Z" fill="#737373"/>
<path d="M42.2045 12.9719L39.8105 7.45117H41.6182L43.89 12.7032L42.2045 12.9719ZM40.922 15.7444L44.5251 7.45117H46.3328L42.7419 15.7444H40.922Z" fill="#737373"/>
<path d="M36.8362 13.5338C36.2417 13.5338 35.7165 13.4076 35.2606 13.1551C34.8127 12.9027 34.4626 12.5445 34.2102 12.0803C33.9659 11.6162 33.8438 11.0706 33.8438 10.4437C33.8438 9.82482 33.9659 9.27927 34.2102 8.807C34.4626 8.33473 34.8127 7.96831 35.2606 7.70775C35.7165 7.43904 36.2417 7.30469 36.8362 7.30469C37.4469 7.30469 37.9761 7.44311 38.424 7.71996C38.8718 7.99681 39.2179 8.37137 39.4621 8.84364C39.7064 9.30777 39.8286 9.83297 39.8286 10.4192C39.8286 10.5251 39.8245 10.6269 39.8163 10.7246C39.8082 10.8223 39.8001 10.8996 39.7919 10.9566H35.2361V9.6864H38.424L38.2163 10.2116C38.2163 9.76375 38.1023 9.39734 37.8743 9.11235C37.6545 8.82735 37.3125 8.68486 36.8484 8.68486C36.4331 8.68486 36.0993 8.81107 35.8468 9.06349C35.6026 9.31591 35.4804 9.64976 35.4804 10.065V10.7368C35.4804 11.1846 35.6066 11.5348 35.859 11.7872C36.1196 12.0315 36.4779 12.1536 36.9339 12.1536C37.3166 12.1536 37.6178 12.0763 37.8377 11.9215C38.0657 11.7668 38.257 11.5755 38.4117 11.3475L39.6209 12.0193C39.3604 12.4997 38.9939 12.8742 38.5217 13.1429C38.0494 13.4035 37.4876 13.5338 36.8362 13.5338Z" fill="#737373"/>
<path d="M31.539 13.4236V5.10596H33.3222V13.4236H31.539ZM26.5068 13.4236V5.10596H28.2901V13.4236H26.5068ZM27.6549 10.2114V8.48921H32.1374V10.2114H27.6549Z" fill="#737373"/>
</svg>
