<svg width="53" height="12" viewBox="0 0 53 12" fill="none" xmlns="http://www.w3.org/2000/svg">
<path d="M0.526367 6C0.526367 1.059 1.58537 0 6.52637 0C11.4674 0 12.5264 1.059 12.5264 6C12.5264 10.941 11.4674 12 6.52637 12C1.58537 12 0.526367 10.941 0.526367 6Z" fill="#A1A1A1"/>
<path d="M7.15137 2.60938C9.7248 2.60938 10.2764 3.16094 10.2764 5.73438C10.2764 8.30781 9.7248 8.85938 7.15137 8.85938H6.56512V9.95312L5.59558 9.6333C4.95175 9.42089 4.62973 9.31473 4.36176 9.16302C3.94291 8.92591 3.59074 8.59766 3.32477 8.20966C3.13667 8.00117 3.00764 7.73168 2.92194 7.38629C2.88753 7.27755 2.85899 7.1664 2.83649 7.05334C2.77639 6.75134 2.77637 6.41234 2.77637 5.73438C2.77637 3.16094 3.32793 2.60938 5.90137 2.60938H7.15137Z" fill="#0A0A0A"/>
<path d="M49.2422 10.4993C48.5943 10.4993 48.0262 10.3562 47.5382 10.0701C47.0501 9.78402 46.6756 9.39692 46.4147 8.90885C46.1539 8.41235 46.0234 7.87379 46.0234 7.29314C46.0234 6.7125 46.1539 6.17814 46.4147 5.69007C46.6756 5.20199 47.0501 4.81489 47.5382 4.52878C48.0262 4.24267 48.5943 4.09961 49.2422 4.09961C49.8902 4.09961 50.4582 4.24267 50.9463 4.52878C51.4344 4.81489 51.8088 5.20199 52.0697 5.69007C52.339 6.17814 52.4736 6.7125 52.4736 7.29314C52.4736 7.87379 52.339 8.41235 52.0697 8.90885C51.8088 9.39692 51.4344 9.78402 50.9463 10.0701C50.4582 10.3562 49.8902 10.4993 49.2422 10.4993ZM49.2422 9.07294C49.562 9.07294 49.8397 8.993 50.0753 8.83311C50.3193 8.67322 50.5003 8.45864 50.6181 8.18935C50.7443 7.92007 50.8074 7.62133 50.8074 7.29314C50.8074 6.97337 50.7443 6.67884 50.6181 6.40956C50.5003 6.14027 50.3193 5.92569 50.0753 5.7658C49.8397 5.60591 49.562 5.52597 49.2422 5.52597C48.914 5.52597 48.6321 5.60591 48.3965 5.7658C48.1693 5.92569 47.9926 6.14027 47.8663 6.40956C47.7485 6.67884 47.6896 6.97337 47.6896 7.29314C47.6896 7.62133 47.7485 7.92007 47.8663 8.18935C47.9926 8.45864 48.1693 8.67322 48.3965 8.83311C48.6321 8.993 48.914 9.07294 49.2422 9.07294Z" fill="#A1A1A1"/>
<path d="M43.7266 10.3485V4.25174H45.3297V10.3485H43.7266ZM44.5218 1.5C44.7911 1.5 45.0183 1.59257 45.2034 1.7777C45.3886 1.96283 45.4811 2.19004 45.4811 2.45932C45.4811 2.63604 45.4391 2.79593 45.3549 2.93898C45.2708 3.08204 45.153 3.19564 45.0015 3.2798C44.8584 3.36395 44.6985 3.40602 44.5218 3.40602C44.261 3.40602 44.0337 3.31346 43.8402 3.12832C43.6551 2.94319 43.5625 2.72019 43.5625 2.45932C43.5625 2.28261 43.6046 2.12272 43.6887 1.97966C43.7813 1.82819 43.8991 1.71038 44.0422 1.62623C44.1936 1.54208 44.3535 1.5 44.5218 1.5Z" fill="#A1A1A1"/>
<path d="M41.8222 10.4873C41.5445 10.4873 41.3047 10.3863 41.1027 10.1843C40.9008 9.98235 40.7998 9.74252 40.7998 9.46482C40.7998 9.27969 40.8461 9.11138 40.9387 8.95991C41.0312 8.80002 41.1532 8.6738 41.3047 8.58123C41.4646 8.48867 41.6371 8.44238 41.8222 8.44238C42.0999 8.44238 42.3398 8.54336 42.5417 8.74533C42.7437 8.94729 42.8447 9.18712 42.8447 9.46482C42.8447 9.64995 42.7984 9.82246 42.7058 9.98235C42.6133 10.1338 42.487 10.2558 42.3271 10.3484C42.1673 10.441 41.999 10.4873 41.8222 10.4873Z" fill="#A1A1A1"/>
<path d="M39.287 10.4994C38.7232 10.4994 38.294 10.3563 37.9995 10.0702C37.7049 9.78409 37.5577 9.37175 37.5577 8.83318V2.58496H39.1734V8.40401C39.1734 8.41243 39.1734 8.42505 39.1734 8.44188C39.1734 8.45029 39.1734 8.45871 39.1734 8.46712C39.1902 8.65226 39.2449 8.79952 39.3375 8.90892C39.4384 9.01831 39.5689 9.07301 39.7288 9.07301C39.8382 9.07301 39.9476 9.05618 40.057 9.02252C40.1664 8.98045 40.2421 8.93837 40.2842 8.89629L40.625 10.1081C40.4987 10.2259 40.322 10.3184 40.0948 10.3858C39.8676 10.4615 39.5983 10.4994 39.287 10.4994ZM36.5479 5.65227V4.25115H40.4104V5.65227H36.5479Z" fill="#A1A1A1"/>
<path d="M32.6612 10.4993C32.1479 10.4993 31.6851 10.3731 31.2727 10.1206C30.8604 9.86817 30.5364 9.50211 30.3008 9.02245C30.0736 8.53437 29.96 7.96215 29.96 7.30577C29.96 6.64939 30.0736 6.08137 30.3008 5.60171C30.5364 5.12205 30.8604 4.75178 31.2727 4.49091C31.6851 4.23004 32.1479 4.09961 32.6612 4.09961C33.0567 4.09961 33.4312 4.19638 33.7846 4.38993C34.1465 4.57506 34.4452 4.84855 34.6808 5.2104L34.643 6.38431C34.5336 6.1571 34.3316 5.95935 34.0371 5.79105C33.751 5.62274 33.4564 5.53859 33.1535 5.53859C32.8506 5.53859 32.5813 5.61433 32.3456 5.7658C32.1184 5.90886 31.9375 6.11503 31.8029 6.38431C31.6766 6.64518 31.6135 6.95233 31.6135 7.30577C31.6135 7.83592 31.7566 8.26509 32.0427 8.59328C32.3288 8.91305 32.6991 9.07294 33.1535 9.07294C33.4564 9.07294 33.751 8.993 34.0371 8.83311C34.3316 8.67322 34.5336 8.47126 34.643 8.22722L34.6808 9.40113C34.4284 9.75456 34.1296 10.0281 33.7846 10.2216C33.4396 10.4067 33.0651 10.4993 32.6612 10.4993ZM34.542 10.3478V4.25108H36.1577V10.3478H34.542Z" fill="#A1A1A1"/>
<path d="M24.5508 10.3477V9.14857L27.3025 5.65209H24.5508V4.25098H29.4736V5.41226L26.684 8.94661H29.5241V10.3477H24.5508Z" fill="#A1A1A1"/>
<path d="M20.6186 10.4997C19.8023 10.4997 19.0618 10.3188 18.397 9.9569C17.7406 9.59505 17.2231 9.08173 16.8444 8.41694C16.4657 7.75215 16.2764 6.99479 16.2764 6.14486C16.2764 5.28652 16.4699 4.52916 16.857 3.87278C17.2441 3.20799 17.7743 2.69466 18.4475 2.33281C19.1207 1.97096 19.8696 1.79004 20.6943 1.79004C21.3086 1.79004 21.843 1.88681 22.2974 2.08036C22.7602 2.26549 23.1515 2.51374 23.4713 2.8251C23.7911 3.12804 24.0603 3.46885 24.2791 3.84753L22.7265 4.60489C22.5498 4.25146 22.2763 3.96114 21.9061 3.73393C21.5442 3.49831 21.1235 3.38049 20.6438 3.38049C20.1641 3.38049 19.7308 3.49831 19.3437 3.73393C18.9566 3.96114 18.6536 4.28512 18.4348 4.70588C18.2245 5.12663 18.1193 5.60629 18.1193 6.14486C18.1193 6.68343 18.2287 7.16309 18.4475 7.58384C18.6663 8.0046 18.9692 8.33279 19.3563 8.56841C19.7434 8.79562 20.1768 8.90922 20.6564 8.90922C21.1277 8.90922 21.5442 8.79562 21.9061 8.56841C22.2763 8.3412 22.5498 8.04667 22.7265 7.68482L24.2791 8.42956C24.0519 8.82507 23.7784 9.1743 23.4587 9.47724C23.1389 9.78019 22.7392 10.0284 22.2595 10.222C21.7883 10.4071 21.2413 10.4997 20.6186 10.4997Z" fill="#A1A1A1"/>
</svg>
