<svg width="73" height="20" viewBox="0 0 73 20" fill="none" xmlns="http://www.w3.org/2000/svg">
<circle cx="10.9785" cy="10" r="8" fill="#171717"/>
<path d="M8.67281 13.7535C7.90427 12.8445 6.54088 11.1328 6.05558 9.89223C6.02854 9.8231 6.01949 9.74955 6.0254 9.67556C6.05315 9.32808 6.40833 9.10448 6.70618 9.28557C7.21405 9.59436 7.63059 10.0121 8.10304 10.5363C8.21196 10.6571 8.40726 10.6381 8.48927 10.4976C8.52555 10.4354 8.53188 10.3602 8.50653 10.2929L7.2184 6.87222C7.10134 6.56136 7.25844 6.21447 7.5693 6.09741C7.8732 5.98297 8.21307 6.13044 8.3371 6.43056L9.57499 9.42601C9.62761 9.55334 9.77181 9.61591 9.90075 9.56735C10.0216 9.52183 10.0895 9.39313 10.0586 9.26767L9.15915 5.60632C9.06583 5.22646 9.29843 4.84295 9.67841 4.75015C10.0638 4.65605 10.4512 4.89705 10.537 5.28431L11.2829 8.64715C11.3134 8.78475 11.4423 8.87754 11.5825 8.86277C11.7296 8.84727 11.8386 8.71891 11.8301 8.57119L11.6803 5.97373C11.6594 5.61203 11.9537 5.31053 12.3158 5.32259C12.6334 5.33317 12.8909 5.58369 12.9101 5.90093L13.0925 8.90666C13.1319 9.5557 12.8698 10.1757 12.4429 10.6662C12.0499 11.1177 11.7847 11.5379 11.5336 12.1204C11.4721 12.2633 11.5337 12.4282 11.6714 12.5006C11.7981 12.5672 11.9544 12.5365 12.0454 12.4261C13.2065 11.0178 13.9611 9.77791 14.8451 8.37587C15.013 8.10969 15.3462 8.00099 15.6392 8.11556C15.9625 8.24194 16.1323 8.59752 16.0272 8.92835L14.8184 12.7353C14.7038 13.0963 14.5525 13.446 14.346 13.7634C13.9549 14.3647 13.6512 14.677 13.1377 14.9526C12.8332 15.116 12.5012 15.2242 12.1615 15.2875C11.5044 15.4098 11.0901 15.363 10.5211 15.154C10.3283 15.0597 10.1162 14.9401 9.92 14.8234C9.44554 14.541 9.02929 14.1751 8.67281 13.7535Z" fill="white"/>
<path d="M63.1945 15.9688C62.9482 15.9688 62.7058 15.9438 62.4673 15.8937C62.2287 15.8437 62.0036 15.761 61.792 15.6456L62.1556 14.2257C62.2787 14.295 62.4134 14.3489 62.5596 14.3874C62.7097 14.4258 62.8482 14.4451 62.9752 14.4451C63.206 14.4451 63.3965 14.395 63.5466 14.295C63.6966 14.195 63.8082 14.0314 63.8813 13.8044L64.0025 13.435L61.7285 7.55957H63.5581L64.9548 11.7267L66.3112 7.55957H68.0946L65.6474 14.0526C65.455 14.5374 65.2338 14.9183 64.9837 15.1954C64.7336 15.4763 64.4585 15.6744 64.1584 15.7898C63.8582 15.9091 63.5369 15.9688 63.1945 15.9688Z" fill="#171717"/>
<path d="M57.5671 13.5623C57.0092 13.5623 56.5109 13.4334 56.0722 13.1756C55.6336 12.914 55.2873 12.5504 55.0334 12.0848C54.7833 11.6192 54.6582 11.0825 54.6582 10.4745C54.6582 10.0166 54.7294 9.59916 54.8718 9.22208C55.018 8.84501 55.2219 8.51987 55.4835 8.24668C55.7452 7.96965 56.053 7.75802 56.407 7.61181C56.7648 7.46175 57.1515 7.38672 57.5671 7.38672C58.1212 7.38672 58.5887 7.506 58.9696 7.74456C59.3543 7.98312 59.6352 8.29478 59.8122 8.67955L59.5756 9.04316V7.55987H61.0416V13.3892H59.5756V11.9059L59.8122 12.2695C59.6352 12.6542 59.3543 12.9659 58.9696 13.2045C58.5887 13.443 58.1212 13.5623 57.5671 13.5623ZM57.8383 12.1021C58.1308 12.1021 58.3924 12.0367 58.6233 11.9059C58.8541 11.7712 59.035 11.5827 59.1658 11.3403C59.3005 11.0978 59.3678 10.8093 59.3678 10.4745C59.3678 10.1398 59.3005 9.85118 59.1658 9.60878C59.035 9.36637 58.8541 9.17976 58.6233 9.04893C58.3924 8.91426 58.1308 8.84693 57.8383 8.84693C57.5498 8.84693 57.29 8.91426 57.0592 9.04893C56.8283 9.17976 56.6456 9.36637 56.5109 9.60878C56.3801 9.85118 56.3146 10.1398 56.3146 10.4745C56.3146 10.8093 56.3801 11.0978 56.5109 11.3403C56.6456 11.5827 56.8283 11.7712 57.0592 11.9059C57.29 12.0367 57.5498 12.1021 57.8383 12.1021Z" fill="#171717"/>
<path d="M47.0785 13.3889L45.3066 7.55957H46.9515L47.9904 11.4496L49.1678 7.55957H50.7435L51.8689 11.4496L52.9078 7.55957H54.4835L52.7116 13.3889H51.0205L49.9239 9.63734L48.7696 13.3889H47.0785Z" fill="#171717"/>
<path d="M40.3468 15.9688C40.1006 15.9688 39.8582 15.9438 39.6196 15.8937C39.3811 15.8437 39.156 15.761 38.9443 15.6456L39.308 14.2257C39.4311 14.295 39.5658 14.3489 39.712 14.3874C39.862 14.4258 40.0005 14.4451 40.1275 14.4451C40.3584 14.4451 40.5488 14.395 40.6989 14.295C40.849 14.195 40.9606 14.0314 41.0337 13.8044L41.1549 13.435L38.8809 7.55957H40.7105L42.1072 11.7267L43.4635 7.55957H45.2469L42.7998 14.0526C42.6074 14.5374 42.3861 14.9183 42.136 15.1954C41.8859 15.4763 41.6108 15.6744 41.3107 15.7898C41.0106 15.9091 40.6893 15.9688 40.3468 15.9688Z" fill="#171717"/>
<path d="M35.8399 13.5623C35.2051 13.5623 34.6472 13.4334 34.1662 13.1756C33.6852 12.9178 33.3101 12.5581 33.0407 12.0963C32.7714 11.6346 32.6367 11.094 32.6367 10.4745C32.6367 10.0243 32.7137 9.6107 32.8676 9.23363C33.0253 8.85655 33.2447 8.53142 33.5255 8.25823C33.8103 7.98119 34.1431 7.76764 34.524 7.61758C34.9088 7.46367 35.3301 7.38672 35.788 7.38672C36.2921 7.38672 36.7384 7.47522 37.127 7.65221C37.5195 7.82921 37.8446 8.07738 38.1024 8.39675C38.3602 8.71226 38.5391 9.08356 38.6392 9.51066C38.7431 9.93776 38.7527 10.4014 38.668 10.9016H34.2008C34.2008 11.171 34.2701 11.4057 34.4086 11.6057C34.551 11.8058 34.7491 11.9636 35.0031 12.079C35.2609 12.1906 35.561 12.2464 35.9034 12.2464C36.242 12.2464 36.5652 12.2002 36.8731 12.1079C37.1809 12.0155 37.4714 11.8751 37.7446 11.6865L38.3044 12.8409C38.1197 12.9832 37.8889 13.1102 37.6118 13.2218C37.3348 13.3295 37.0404 13.4123 36.7288 13.47C36.421 13.5315 36.1247 13.5623 35.8399 13.5623ZM34.2989 9.74152H37.052C37.0404 9.39908 36.9192 9.12781 36.6884 8.92773C36.4614 8.72765 36.1478 8.62761 35.7476 8.62761C35.3474 8.62761 35.0146 8.72765 34.7491 8.92773C34.4875 9.12781 34.3374 9.39908 34.2989 9.74152Z" fill="#171717"/>
<path d="M24.6992 13.3888V5.30859H26.4076V8.3733H29.8359V5.30859H31.5443V13.3888H29.8359V9.9374H26.4076V13.3888H24.6992Z" fill="#171717"/>
</svg>
